# xmcd
#
# Track frame offsets:
#	150
#	14232
#	30647
#	40555
#	58905
#	72310
#	85622
#	96330
#	113465
#	133587
#	144420
#	162300
#	173237
#	191422
#	203497
#
# Disc length: 2905 seconds
#
# Revision: 0
# Processed by: cddbd v1.5.2PL0 Copyright (c) Steve Scherf et al.
# Submitted via: dBpowerAMP V4.0
#
DISCID=c70b570f
DTITLE=Toquinho - Greatest Hits
DYEAR=1900
DGENRE=
TTITLE0=Mais que nada
TTITLE1=Tristeza
TTITLE2=Garota de ipanema
TTITLE3=Aquarela do brasil
TTITLE4=Samba da rosa
TTITLE5=Maria vai com as qutras
TTITLE6=Meu pai oxala
TTITLE7=Aguas de Marco
TTITLE8=Manha de carnaval
TTITLE9=Tico Tico no fuba
TTITLE10=Acquarello (acquarela)
TTITLE11=A banda
TTITLE12=Brasiliando
TTITLE13=Angelo straniero (ao que vai chegar)
TTITLE14=Se t'innamorerai (cancao para jade)
EXTD=
EXTT0=
EXTT1=
EXTT2=
EXTT3=
EXTT4=
EXTT5=
EXTT6=
EXTT7=
EXTT8=
EXTT9=
EXTT10=
EXTT11=
EXTT12=
EXTT13=
EXTT14=
PLAYORDER=
